<?xml version="1.0" encoding="UTF-8"?>
<svg id="Layer_1" data-name="Layer 1" xmlns="http://www.w3.org/2000/svg" viewBox="0 0 1500 360">
  <defs>
    <style>
      .cls-1 {
        fill: #fff;
        stroke-width: 0px;
      }
    </style>
  </defs>
  <g id="Artwork_1" data-name="Artwork 1">
    <g>
      <path class="cls-1" d="M302.32,144.88l-46.58,3.46v6.93c17.94,0,21.72,4.72,21.72,28.33v2.4l24.96-38.65c-.04-.9-.06-1.48-.1-2.47"/>
      <path class="cls-1" d="M373.16,163.45c0-11.02-10.39-19.51-23.93-19.51-9.03,0-17.64,3.31-25.34,9.34l-46.42,71.86v42.82c0,29.28-1.89,31.79-22.98,32.43v6.93h72.08v-6.93c-21.09-.64-22.67-2.83-22.67-32.43v-49.42c0-16.69,2.83-29.59,8.49-39.98,6.61-11.96,15.44-18.89,23.62-18.89,5.03,0,6.92,1.89,8.81,8.81,1.89,5.98,4.72,7.87,11.65,7.87,10.07,0,16.69-5.04,16.69-12.91"/>
      <path class="cls-1" d="M442.43,143.94c-21.71,0-41.56,7.56-54.77,21.08-14.48,14.8-22.98,39.04-22.98,65.17,0,48.8,30.22,81.21,75.86,81.21s78.07-33.06,78.07-85.62c0-49.42-30.21-81.84-76.18-81.84M441.49,303.85c-30.22,0-47.54-28.33-47.54-77.75s16.69-74.92,46.91-74.92,48.48,28.33,48.48,77.44-17.01,75.23-47.85,75.23"/>
      <path class="cls-1" d="M929.44,267.97v-68c0-21.4-2.83-32.73-9.77-41.55-7.86-9.44-20.14-14.48-35.57-14.48-17.27,0-30.44,5.92-41.44,18.36l-36,55.73v49.94c0,29.28-1.57,31.79-22.68,32.42v6.93h71.46v-6.93c-21.4-.63-22.97-3.14-22.97-32.42v-55.72c0-15.11,3.46-26.44,11.95-38.08,8.5-12.59,18.27-18.57,29.29-18.57,12.27,0,19.51,3.46,23.92,11.65,4.72,8.19,5.98,17,5.98,38.08v62.65c0,29.28-1.56,31.79-22.98,32.42v6.93h71.78v-6.93c-21.41-.63-22.98-3.14-22.98-32.42"/>
      <path class="cls-1" d="M787.78,143.94c-22.97,0-40.59,11.64-52.25,33.99v-33.06l-47.21,3.47v6.93c18.26,0,21.71,4.71,21.71,28.32v84.37c0,29.58-1.56,31.79-22.98,32.42h-.32c-9.13,0-12.91-1.57-14.8-5.67-1.57-3.78-1.57-4.09-2.21-33.68v-121.83c0-24.24.64-70.79,1.89-90.94l-50.99,2.52v6.93c22.98.31,23.31.94,23.31,31.47v75.83c-13.23-14.79-26.45-21.08-45.66-21.08-42.19,0-71.14,35.57-71.14,87.5,0,23.93,6.3,44.07,17.94,58.56,11.34,13.54,28.65,21.72,46.29,21.72,22.98,0,40.61-9.44,53.51-29.28l1.25,27.39,44.07-2.52h68.33v-6.93c-21.09-.63-22.66-2.83-22.66-32.42v-60.45c0-13.54,3.15-23.61,11.01-34,8.81-11.96,19.52-17.94,31.48-17.94,14.25,0,23.09,8.66,26.59,25.99l15.08-23.35c-7.44-9.06-18.05-14.28-32.24-14.28M597.31,302.59c-26.75,0-40.92-25.82-40.92-74.6s15.42-76.19,43.75-76.19,44.7,27.07,44.7,75.87-17.63,74.92-47.54,74.92"/>
      <path class="cls-1" d="M1095.7,148.34v6.93c16.52,0,20.98,4.19,21.59,23.28l21.54-33.35-43.13,3.15Z"/>
      <path class="cls-1" d="M1417.21,267.64v-64.67c0-19.06-2.19-29.98-8.12-39.05-8.44-13.44-21.24-19.36-40.93-19.36-18.45,0-31.41,4.9-42.36,16.21l-37.93,58.72-.31-.2v48.34c0,29.05-1.88,31.55-22.81,32.18v.25c-15.37-1.15-16.7-5.77-16.7-32.1v-65.16c0-19.2-2.2-30.22-8.19-39.35-8.5-13.54-21.41-19.52-41.23-19.52-25,0-40.13,8.75-53.53,30.68l-27.69,42.89v50.46c0,27.32-1.86,31.3-19.22,32.22v-.12c-11.95,0-15.74-.94-17.63-3.46-1.89-2.51-3.45-13.85-3.45-27.07l.31-14.48.31-29.91q.63-30.84.63-31.79c0-17.32-2.83-27.7-9.13-35.57-7.55-9.13-22.04-13.85-42.19-13.85-18.56,0-34,3.46-45.95,10.07-13.23,7.56-21.42,18.89-21.42,30.22,0,6.61,4.73,9.44,15.43,9.44,4.72,0,8.81-.94,11.02-2.53,2.51-1.89,3.16-4.09,3.46-10.69,1.26-19.52,11.96-28.96,32.74-28.96,12.9,0,21.72,4.09,25.81,12.28,3.16,6.61,4.41,14.17,4.41,28.65v19.82c-22.97,1.57-39.66,3.78-56.02,7.56-30.55,6.93-46.29,22.98-46.29,47.85,0,13.21,5.35,25.81,13.85,33.36,7.87,6.61,18.26,9.76,32.11,9.76,16.05,0,27.07-3.46,40.92-13.53,6.3-4.42,10.4-7.87,15.43-13.55,1.27,21.09,3.78,26.13,13.22,26.13,5.66,0,17.42-1.05,28.66-2.63v.11h71.78v-6.93c-21.41-.63-22.97-2.83-22.97-32.42v-54.45c0-12.91,4.09-28.02,10.69-38.42,8.82-14.16,20.79-21.08,35.58-21.08,13.21,0,22.66,5.67,27.69,16.69,3.45,7.24,5.04,18.25,5.04,34v63.27c0,2.2-.64,13.84-.94,17.32-.31,5.34-1.26,7.87-3.15,10.38-2.52,3.15-8.19,4.41-18.57,4.72v6.93h71.45v-.62h64.95v-6.87c-21.25-.63-22.81-2.81-22.81-32.18v-54.04c0-12.82,4.06-27.81,10.62-38.12,8.75-14.06,20.62-20.92,35.31-20.92,13.11,0,22.48,5.61,27.48,16.55,3.44,7.19,5,18.12,5,33.74v62.79c0,2.19-.63,13.74-.94,17.18-.31,5.31-1.26,7.81-3.13,10.31-2.49,3.13-8.12,4.37-18.42,4.69v6.87h70.89v-6.87c-21.23-.63-22.79-2.81-22.79-32.18M1052.55,234.28c0,20.78-2.19,34-7.24,42.82-7.86,13.53-24.23,22.97-40.3,22.97s-26.44-13.54-26.44-33.37c0-16.68,7.24-29.27,21.09-35.88,12.58-6.29,24.86-8.81,52.88-11.33v14.8Z"/>
      <path class="cls-1" d="M1266.02,148.94v6.87c16.96,0,21.11,4.45,21.47,25.13l22.75-35.22-44.22,3.22Z"/>
      <path class="cls-1" d="M60,299.14c10.97,0,17.43-1.62,20.32-4.84,3.56-3.87,3.56-4.19,4.2-28.4V113.9c-.65-20.65-.65-20.97-1.62-23.88-2.25-6.77-8.06-9.36-22.91-9.36v-7.74h88.09c25.18,0,46.8,3.55,59.38,9.36,18.71,9.04,27.75,23.56,27.75,44.85,0,30.66-19.69,47.76-60.34,52.93v2.26c15.81.64,25.82,2.9,37.11,8.7,21.94,11.31,32.27,28.07,32.27,52.61,0,29.69-14.2,48.07-43.24,57.44-12.27,3.55-32.59,5.81-54.54,5.81H60v-7.74ZM145.83,176.51c38.72,0,58.73-16.47,58.73-48.09s-20.01-45.82-61.63-45.82h-29.69v93.91h32.59ZM144.55,297.2c23.56,0,40.33-4.19,50.67-13.24,10.32-8.38,16.13-23.87,16.13-42.91,0-21.95-8.39-37.76-23.88-46.15-9.35-4.84-25.17-7.75-42.92-7.75h-31.31v110.05h31.31Z"/>
    </g>
  </g>
</svg>